<svg width="36" height="28" viewBox="0 0 36 28" fill="none" xmlns="http://www.w3.org/2000/svg">
<path d="M1.28571 6.07136H34.7143C35.0553 6.07136 35.3823 5.93214 35.6234 5.68432C35.8645 5.43651 36 5.1004 36 4.74993V2.10707C36 1.75661 35.8645 1.4205 35.6234 1.17268C35.3823 0.924866 35.0553 0.785645 34.7143 0.785645H1.28571C0.944722 0.785645 0.617695 0.924866 0.376577 1.17268C0.135459 1.4205 0 1.75661 0 2.10707L0 4.74993C0 5.1004 0.135459 5.43651 0.376577 5.68432C0.617695 5.93214 0.944722 6.07136 1.28571 6.07136ZM34.7143 21.9285H1.28571C0.944722 21.9285 0.617695 22.0677 0.376577 22.3155C0.135459 22.5634 0 22.8995 0 23.2499L0 25.8928C0 26.2432 0.135459 26.5794 0.376577 26.8272C0.617695 27.075 0.944722 27.2142 1.28571 27.2142H34.7143C35.0553 27.2142 35.3823 27.075 35.6234 26.8272C35.8645 26.5794 36 26.2432 36 25.8928V23.2499C36 22.8995 35.8645 22.5634 35.6234 22.3155C35.3823 22.0677 35.0553 21.9285 34.7143 21.9285ZM34.969 11.3571H13.8881C13.7527 11.357 13.6186 11.3843 13.4935 11.4375C13.3683 11.4907 13.2546 11.5688 13.1589 11.6672C13.0631 11.7656 12.9872 11.8825 12.9354 12.0111C12.8836 12.1397 12.857 12.2775 12.8571 12.4167V15.5832C12.857 15.7224 12.8836 15.8602 12.9354 15.9888C12.9872 16.1174 13.0631 16.2343 13.1589 16.3327C13.2546 16.4311 13.3683 16.5091 13.4935 16.5623C13.6186 16.6156 13.7527 16.6429 13.8881 16.6428H34.969C35.1044 16.6429 35.2385 16.6156 35.3637 16.5623C35.4888 16.5091 35.6025 16.4311 35.6983 16.3327C35.794 16.2343 35.87 16.1174 35.9217 15.9888C35.9735 15.8602 36.0001 15.7224 36 15.5832V12.4167C36.0001 12.2775 35.9735 12.1397 35.9217 12.0111C35.87 11.8825 35.794 11.7656 35.6983 11.6672C35.6025 11.5688 35.4888 11.4907 35.3637 11.4375C35.2385 11.3843 35.1044 11.357 34.969 11.3571Z" fill="#311514"/>
</svg>
