<?xml version="1.0" encoding="UTF-8"?>
<svg version="1.1" xmlns="http://www.w3.org/2000/svg" width="567" height="184">
<path d="M0 0 C0.69495575 -0.01036789 1.3899115 -0.02073578 2.10592651 -0.03141785 C4.39284074 -0.0584233 6.67782855 -0.04884274 8.96484375 -0.03637695 C10.55998263 -0.04228817 12.15511708 -0.04953586 13.75024414 -0.05805969 C17.08926553 -0.06992857 20.42761986 -0.06325149 23.76660156 -0.04394531 C28.04107695 -0.02105179 32.3135654 -0.04784594 36.58784485 -0.08900738 C39.88054866 -0.11460806 43.17277836 -0.11199976 46.46554565 -0.10111427 C48.04118657 -0.09962953 49.61686417 -0.10729525 51.19241333 -0.12436485 C53.39772332 -0.14438096 55.59953752 -0.12592085 57.8046875 -0.09765625 C59.68401978 -0.09502022 59.68401978 -0.09502022 61.60131836 -0.09233093 C66.24619504 0.9702735 67.26093008 2.75841785 69.90234375 6.6628418 C71.01171875 9.69799805 71.01171875 9.69799805 71.65234375 12.7253418 C71.8740625 13.72694336 72.09578125 14.72854492 72.32421875 15.76049805 C72.515 16.71827148 72.70578125 17.67604492 72.90234375 18.6628418 C73.23558953 20.32952597 73.56890917 21.99619538 73.90234375 23.6628418 C75.19857666 23.64713135 76.49480957 23.6314209 77.83032227 23.61523438 C82.65903461 23.56075956 87.48771999 23.52642786 92.31665039 23.49804688 C94.40295995 23.48300021 96.48923808 23.46255797 98.57543945 23.43652344 C101.58162206 23.39995885 104.58738487 23.3830739 107.59375 23.36987305 C108.52006729 23.35438919 109.44638458 23.33890533 110.40077209 23.32295227 C118.31335644 23.32091573 123.98677144 25.08530219 129.90234375 30.6628418 C131.88588632 33.83722172 132.14707052 36.27022102 132.12939453 39.98217773 C132.12916794 41.57337433 132.12916794 41.57337433 132.12893677 43.19671631 C132.1186142 44.33538147 132.10829163 45.47404663 132.09765625 46.6472168 C132.09482635 47.81794739 132.09199646 48.98867798 132.08908081 50.19488525 C132.07788531 53.93430804 132.05278151 57.67349139 132.02734375 61.4128418 C132.01731315 63.94799459 132.00818744 66.48315113 132 69.01831055 C131.97794801 75.233236 131.9444765 81.44802179 131.90234375 87.6628418 C130.24619718 88.04502947 128.57777351 88.37679281 126.90234375 88.6628418 C125.25605504 87.01655309 125.76917279 85.10682888 125.76049805 82.83935547 C125.74994637 81.29721626 125.74994637 81.29721626 125.73918152 79.72392273 C125.73501724 78.60419571 125.73085297 77.48446869 125.7265625 76.33081055 C125.70336386 73.9824943 125.67924651 71.63418697 125.65429688 69.28588867 C125.61915509 65.5660201 125.58982982 61.84647931 125.57641602 58.12646484 C125.56097155 54.54833818 125.52077877 50.97118201 125.4765625 47.39331055 C125.47942513 45.72282906 125.47942513 45.72282906 125.48234558 44.01860046 C125.46585464 42.98105118 125.44936371 41.94350189 125.43237305 40.87451172 C125.42650681 39.96263596 125.42064056 39.05076019 125.41459656 38.11125183 C124.72805247 34.82978339 123.56918032 33.65422277 120.90234375 31.6628418 C118.45417149 31.05282018 118.45417149 31.05282018 115.76660156 31.11694336 C114.74584534 31.09722473 113.72508911 31.0775061 112.67340088 31.05718994 C111.57848328 31.0559613 110.48356567 31.05473267 109.35546875 31.0534668 C108.22913025 31.03693054 107.10279175 31.02039429 105.94232178 31.00335693 C102.3456075 30.95478049 98.74931633 30.93348371 95.15234375 30.9128418 C92.71352027 30.88469033 90.27471658 30.85476407 87.8359375 30.82299805 C81.85814998 30.74901887 75.88048192 30.69743286 69.90234375 30.6628418 C67.41247104 25.05168922 66.02858209 19.92373714 64.99804688 13.82885742 C64.32759851 9.82837058 64.32759851 9.82837058 61.90234375 6.6628418 C59.05033487 6.34126687 59.05033487 6.34126687 55.66430664 6.37231445 C53.6970034 6.3531749 53.6970034 6.3531749 51.68995667 6.33364868 C50.25163927 6.33059149 48.81331991 6.32836348 47.375 6.3269043 C45.9053077 6.32048007 44.4356167 6.313752 42.96592712 6.30673218 C39.88326044 6.2947468 36.80070593 6.29105265 33.71801758 6.29223633 C29.7654182 6.29243964 25.81353692 6.26513202 21.86110783 6.23069191 C18.82507516 6.20846814 15.78921658 6.20439737 12.75311089 6.20545578 C11.29582683 6.20309319 9.83853846 6.19423266 8.3813343 6.17879105 C6.34424187 6.15922555 4.30693947 6.16746722 2.26977539 6.17700195 C0.53009239 6.1727269 0.53009239 6.1727269 -1.24473572 6.16836548 C-4.19533545 6.39350665 -4.19533545 6.39350665 -5.95237732 8.55680847 C-7.17341501 10.80215324 -7.75580873 12.6669574 -8.23046875 15.17456055 C-8.39675781 16.01438477 -8.56304687 16.85420898 -8.734375 17.71948242 C-8.89550781 18.58766602 -9.05664062 19.45584961 -9.22265625 20.3503418 C-9.5554221 22.08402649 -9.89119696 23.81713728 -10.23046875 25.54956055 C-10.37371582 26.31486084 -10.51696289 27.08016113 -10.66455078 27.86865234 C-11.09765625 29.6628418 -11.09765625 29.6628418 -12.09765625 30.6628418 C-13.67212467 30.7699253 -15.25128185 30.80906141 -16.8293457 30.82055664 C-17.83741776 30.83081879 -18.84548981 30.84108093 -19.8841095 30.85165405 C-20.98196274 30.85895538 -22.07981598 30.86625671 -23.2109375 30.8737793 C-25.51367896 30.90184953 -27.81641325 30.930514 -30.11914062 30.9597168 C-33.76651804 31.00099952 -37.41376163 31.03786783 -41.0612793 31.06420898 C-44.56978415 31.09177326 -48.07766994 31.1376505 -51.5859375 31.1862793 C-52.67771805 31.18953217 -53.7694986 31.19278503 -54.8943634 31.19613647 C-55.91189194 31.21270294 -56.92942047 31.22926941 -57.9777832 31.24633789 C-58.87189407 31.25442474 -59.76600494 31.2625116 -60.68721008 31.27084351 C-63.77337321 31.77273012 -65.03230642 32.28285192 -67.09765625 34.6628418 C-67.5002199 37.45484711 -67.64467917 39.85658997 -67.61523438 42.65087891 C-67.62224365 43.46419174 -67.62925293 44.27750458 -67.63647461 45.11546326 C-67.65409786 47.80738342 -67.64241584 50.49825445 -67.62890625 53.19018555 C-67.63160019 55.05961814 -67.63548179 56.92904938 -67.64050293 58.79847717 C-67.64640405 62.71848884 -67.6378163 66.63813613 -67.61914062 70.55810547 C-67.59636642 75.58337681 -67.60946048 80.60779295 -67.63343048 85.6330328 C-67.64788536 89.494374 -67.64328363 93.35551251 -67.63291931 97.21685982 C-67.63025035 99.06962752 -67.63352775 100.9224136 -67.64283752 102.77515984 C-67.65299636 105.3657388 -67.63751157 107.95493424 -67.61523438 110.54541016 C-67.62737976 111.69496185 -67.62737976 111.69496185 -67.63977051 112.86773682 C-67.58724288 116.16466598 -67.44941317 118.2045306 -65.41192436 120.85921597 C-62.56146768 123.08072058 -61.14481429 123.16509503 -57.56143188 123.17065048 C-55.86110809 123.18782187 -55.86110809 123.18782187 -54.12643433 123.20534015 C-52.88024323 123.19757973 -51.63405212 123.18981931 -50.35009766 123.18182373 C-49.01232054 123.18769874 -47.67455017 123.19532566 -46.33679199 123.2045548 C-42.65415122 123.22486863 -38.97189452 123.22024602 -35.28922319 123.21164727 C-31.31487195 123.20670985 -27.34061811 123.2247851 -23.36630249 123.24006653 C-16.45951123 123.26344688 -9.5528251 123.2721235 -2.64599609 123.27095795 C7.43155993 123.26927976 17.5089785 123.28973276 27.58649778 123.31531325 C44.05733288 123.3565085 60.52814322 123.37971944 76.99902344 123.3918457 C92.79136665 123.40350923 108.58366061 123.42346159 124.37597656 123.45532227 C125.81756618 123.45822642 125.81756618 123.45822642 127.28827882 123.46118924 C131.15776448 123.46902278 135.02724998 123.47692653 138.89673531 123.48492084 C170.73191768 123.55067214 202.56710774 123.6037163 234.40234375 123.63452148 C235.23007114 123.6353283 236.05779852 123.63613511 236.91060856 123.63696638 C257.20638931 123.65648771 277.50215314 123.66483556 297.79794312 123.66213989 C298.75040713 123.66203281 299.70287114 123.66192573 300.68419769 123.6618154 C309.92202221 123.66076202 319.15984554 123.65922075 328.39766918 123.65494367 C351.8934898 123.64456243 375.3875999 123.67284576 398.88183594 123.98022461 C402.98426487 124.03318242 407.08673383 124.0712586 411.18934059 124.1074276 C414.48000305 124.13852807 417.7705139 124.17836823 421.0610466 124.2209053 C422.58329173 124.23921144 424.10557812 124.25440353 425.62788773 124.26618576 C427.6708044 124.28284711 429.71359787 124.31301889 431.75634766 124.34399414 C432.90197174 124.35731781 434.04759583 124.37064148 435.22793579 124.3843689 C437.90234375 124.6628418 437.90234375 124.6628418 439.90234375 126.6628418 C439.90234375 127.6528418 439.90234375 128.6428418 439.90234375 129.6628418 C391.9654833 129.7655449 344.02861469 129.86106952 296.0916748 129.91690063 C295.38227154 129.91772898 294.67286828 129.91855732 293.94196794 129.91941076 C278.52498071 129.93736792 263.10799231 129.95398905 247.69100216 129.96923377 C240.13058972 129.97671784 232.5701776 129.98449715 225.00976562 129.99243164 C223.88123366 129.99360847 223.88123366 129.99360847 222.72990306 129.99480908 C198.34086472 130.02038033 173.95190975 130.06545051 149.56292192 130.12062512 C124.50150986 130.17721801 99.44014395 130.21415382 74.37866907 130.22633174 C70.83947698 130.22806068 67.30028504 130.2300145 63.76109314 130.23210526 C62.71624045 130.23271206 62.71624045 130.23271206 61.65027963 130.23333113 C50.43428576 130.24042336 39.2184345 130.26825679 28.0024988 130.303834 C16.72856861 130.339153 5.45477717 130.35216487 -5.81922001 130.34385006 C-11.92857924 130.33999886 -18.03751964 130.34599139 -24.14680481 130.37807465 C-29.73819097 130.40722428 -35.32887575 130.40877903 -40.92029387 130.38823517 C-42.94466301 130.38569528 -44.96907552 130.39334836 -46.99335903 130.41214089 C-49.74380462 130.43619324 -52.49171273 130.42326534 -55.24211884 130.40112877 C-56.42347983 130.42477189 -56.42347983 130.42477189 -57.62870669 130.44889265 C-63.83851317 130.3358062 -67.66841722 127.94442462 -72.09765625 123.6628418 C-74.65991306 119.81945658 -74.36413176 116.69665074 -74.32470703 112.24414062 C-74.32514511 110.95601219 -74.32514511 110.95601219 -74.32559204 109.64186096 C-74.3241978 106.80109583 -74.30863215 103.96059241 -74.29296875 101.11987305 C-74.28923896 99.15118045 -74.28639183 97.18248601 -74.28439331 95.21379089 C-74.27675421 90.03027224 -74.25710332 84.84686552 -74.23498535 79.66339111 C-74.2145329 74.37481195 -74.20539288 69.08621472 -74.1953125 63.79760742 C-74.17385772 53.41930301 -74.1397184 43.04108171 -74.09765625 32.6628418 C-73.43765625 32.6628418 -72.77765625 32.6628418 -72.09765625 32.6628418 C-71.89140625 32.0853418 -71.68515625 31.5078418 -71.47265625 30.9128418 C-69.33010013 27.40684087 -66.09532399 25.2953644 -62.1831665 24.05665588 C-59.94046211 23.63315829 -57.88651939 23.54275886 -55.60449219 23.54931641 C-54.28357574 23.5494297 -54.28357574 23.5494297 -52.93597412 23.54954529 C-51.99417297 23.55470657 -51.05237183 23.55986786 -50.08203125 23.56518555 C-48.62558197 23.56730797 -48.62558197 23.56730797 -47.13970947 23.56947327 C-44.0423269 23.57506517 -40.94501693 23.58761621 -37.84765625 23.6003418 C-35.74609479 23.60535784 -33.64453221 23.60992057 -31.54296875 23.61401367 C-26.39450333 23.62503195 -21.24609209 23.64229105 -16.09765625 23.6628418 C-16.0321759 23.04415222 -15.96669556 22.42546265 -15.89923096 21.7880249 C-15.81163513 20.9768219 -15.72403931 20.1656189 -15.63378906 19.32983398 C-15.54768372 18.52551941 -15.46157837 17.72120483 -15.37286377 16.89251709 C-15.07400169 14.47119735 -14.59829585 12.23458753 -13.84765625 9.9128418 C-13.63625 9.21674805 -13.42484375 8.5206543 -13.20703125 7.8034668 C-10.08619897 1.78157915 -6.61657824 0.03693664 0 0 Z " fill="#313131" transform="translate(91.09765625,4.337158203125)"/>
<path d="M0 0 C2.97 0 5.94 0 9 0 C9.33 17.16 9.66 34.32 10 52 C20.02587866 44.13362357 20.02587866 44.13362357 29.9375 36.125 C30.82179688 35.40699219 31.70609375 34.68898437 32.6171875 33.94921875 C34.06016007 32.76881988 35.48736344 31.56824857 36.8828125 30.33203125 C41.72116834 26.3150707 46.03217436 26.45965361 52 27 C50.60940467 31.171786 47.70456868 32.19614237 44.0625 34.25 C38.44305922 37.50293728 33.08470864 40.9223509 27.85546875 44.78515625 C26 46 26 46 24 46 C24.37261615 51.88915285 26.8962417 55.05997001 30.4375 59.5 C31.53275187 60.91289956 32.62647467 62.3269856 33.71875 63.7421875 C34.26917969 64.45084961 34.81960938 65.15951172 35.38671875 65.88964844 C38.23697487 69.61810091 40.92456896 73.46070737 43.61303711 77.30664062 C45.56227275 80.07194282 47.57935909 82.71201656 49.78515625 85.2734375 C52 88 52 88 52 90 C48.20346885 90.54617368 44.78297432 90.71149727 41 90 C37.83369332 87.57148787 35.92564322 84.53928518 33.8125 81.1875 C33.22299561 80.3205249 32.63349121 79.4535498 32.02612305 78.56030273 C30.85718897 76.83927828 29.70218761 75.10869393 28.5625 73.36816406 C26.57439427 70.35494131 24.46186783 67.46256616 22.3125 64.5625 C21.44044922 63.35787109 21.44044922 63.35787109 20.55078125 62.12890625 C19.05220617 60.07166841 17.53227062 58.03222598 16 56 C12.70924004 56.37904208 12.70924004 56.37904208 10 58 C9.84028023 60.37338639 9.7407567 62.72118272 9.68359375 65.09765625 C9.66281265 65.80651474 9.64203156 66.51537323 9.62062073 67.24571228 C9.55505402 69.51787305 9.4962077 71.79015264 9.4375 74.0625 C9.39432151 75.59962183 9.35070745 77.1367315 9.30664062 78.67382812 C9.19936551 82.4490959 9.09811863 86.2244836 9 90 C6.03 90 3.06 90 0 90 C0 60.3 0 30.6 0 0 Z " fill="#2D2D2D" transform="translate(422,29)"/>
<path d="M0 0 C9.53212857 6.46035882 15.30796024 14.90297005 18.3125 25.9375 C18.50199219 26.57945313 18.69148438 27.22140625 18.88671875 27.8828125 C21.10039864 38.56534113 18.96120671 49.57903141 13.58203125 58.953125 C6.06813666 69.93150991 -4.44485226 77.39781413 -17.6875 79.9375 C-30.92745353 80.94699792 -41.96712522 77.3739671 -52.65625 69.484375 C-60.25908176 62.64182642 -66.84342466 51.19770474 -67.6875 40.9375 C-67.78998047 39.74060547 -67.78998047 39.74060547 -67.89453125 38.51953125 C-68.39473077 26.57032057 -63.50981147 16.2524697 -55.9375 7.25 C-40.52160826 -9.22806677 -19.15662865 -11.09910518 0 0 Z M-54.375 14.11328125 C-60.61281504 22.78310156 -62.71159399 33.22590556 -61.0625 43.8125 C-58.66537217 54.01146002 -53.00462847 62.68977568 -44.1953125 68.61328125 C-34.364083 73.80453795 -23.93136282 75.4515907 -13.109375 72.74609375 C-3.24633464 69.45311092 4.85673981 63.68828734 9.65625 54.3125 C14.37230563 42.99396648 14.84545793 31.44030679 10.3125 19.9375 C5.23949285 10.17580443 -2.32083569 3.91231398 -12.62109375 0.25 C-28.42697387 -4.3295709 -44.26106437 1.44337819 -54.375 14.11328125 Z " fill="#323232" transform="translate(143.6875,44.0625)"/>
<path d="M0 0 C2.64 0 5.28 0 8 0 C8 17.49 8 34.98 8 53 C10.97 50.69 13.94 48.38 17 46 C22.73027974 41.61170615 22.73027974 41.61170615 25.04052734 39.86767578 C27.77338595 37.7871109 30.34997906 35.6802894 32.890625 33.359375 C37.61787805 29.06432794 40.61858576 26.44588942 47.1875 26.4375 C48.79635403 26.57925917 50.40437744 26.75000884 52 27 C50.86844038 30.39467885 50.49806714 30.58241767 47.53515625 32.234375 C46.82157959 32.64059082 46.10800293 33.04680664 45.37280273 33.46533203 C44.61040283 33.88927246 43.84800293 34.31321289 43.0625 34.75 C36.44057517 38.52661533 30.12766287 42.45318382 24 47 C24.45501127 52.19792539 26.0428271 54.85961223 29.3125 58.875 C30.21867407 60.00813511 31.12356217 61.14229948 32.02734375 62.27734375 C32.50800293 62.87530762 32.98866211 63.47327148 33.48388672 64.08935547 C36.18094323 67.4882547 38.77475698 70.96433837 41.375 74.4375 C41.87427002 75.09927246 42.37354004 75.76104492 42.88793945 76.44287109 C51 87.24527443 51 87.24527443 51 90 C42.49181187 91.03694525 42.49181187 91.03694525 39.25927734 88.79003906 C37.7273795 86.98160036 36.45421467 85.12824176 35.1875 83.125 C34.69886475 82.41988281 34.21022949 81.71476562 33.70678711 80.98828125 C32.10852339 78.67751414 30.55522167 76.33990598 29 74 C27.27426403 71.46676464 25.53443996 68.9453527 23.77270508 66.43701172 C22.64773949 64.83395583 21.54017062 63.21852494 20.4519043 61.59033203 C19.94312744 60.85927246 19.43435059 60.12821289 18.91015625 59.375 C18.46808838 58.72273438 18.02602051 58.07046875 17.57055664 57.3984375 C16.01455118 55.72932266 16.01455118 55.72932266 13.31811523 55.7890625 C12.55313721 55.85867187 11.78815918 55.92828125 11 56 C8.75027108 59.61535385 8.69284448 62.74811694 8.5859375 66.953125 C8.56657135 67.61334656 8.5472052 68.27356812 8.5272522 68.95379639 C8.46770651 71.05240153 8.42117278 73.15106228 8.375 75.25 C8.33679706 76.6771066 8.29774398 78.10419072 8.2578125 79.53125 C8.1620267 83.02062691 8.07790358 86.51017286 8 90 C5.36 90 2.72 90 0 90 C0 60.3 0 30.6 0 0 Z " fill="#2E2E2E" transform="translate(480,29)"/>
<path d="M0 0 C3.31850099 2.87860667 4.91475991 5.26937065 5.4375 9.75 C5 13 5 13 3 15 C1.68 15 0.36 15 -1 15 C-1.25652344 14.34773438 -1.51304687 13.69546875 -1.77734375 13.0234375 C-4.82363347 6.06928117 -8.09253208 2.23487292 -15 -1 C-25.10661898 -4.78099686 -33.93459202 -5.13540018 -44 -1 C-55.61028323 5.00145075 -59.99289405 13.93078847 -64 26 C-67.8003041 39.51162633 -64.84986555 54.4166635 -58.1875 66.4375 C-52.82381359 74.71098628 -45.81820389 79.00442813 -36.4375 81.75 C-25.38105005 82.88399487 -15.17423721 80.27735703 -6.0703125 73.7265625 C-3.03987076 71.19928845 -0.30979835 68.4311764 2.37109375 65.5390625 C4 64 4 64 6 64 C6.93134181 73.84807724 6.93134181 73.84807724 3.625 77.9375 C-0.57776167 80.66682287 -5.26654146 82.42218049 -10 84 C-10.66386719 84.22816406 -11.32773437 84.45632812 -12.01171875 84.69140625 C-25.18266616 88.39169206 -40.38733087 86.84417972 -52.48046875 80.75 C-62.72771839 74.54168352 -70.72593073 64.65060521 -73.77734375 53.04296875 C-76.13610109 40.54001315 -76.02100862 25.37622379 -69.33984375 14.23046875 C-61.63789577 3.03737934 -52.95018594 -4.17648098 -39.63671875 -7.609375 C-25.88004094 -9.64740134 -11.47128614 -8.38224415 0 0 Z " fill="#2D2D2D" transform="translate(307,35)"/>
<path d="M0 0 C7.43818413 5.39706626 12.92800111 12.36164998 14.5703125 21.55859375 C15.49463997 30.66742077 13.19640357 38.49969391 7.4296875 45.63671875 C0.77546571 52.51461186 -6.29547123 56.38682289 -15.86328125 56.6171875 C-23.69145755 56.23860175 -30.15212557 53.24023533 -36.1796875 48.30859375 C-44.10597569 38.62090819 -46.56424592 31.07655498 -45.4296875 18.55859375 C-44.23572873 14.84776989 -42.58709084 11.79155386 -40.4296875 8.55859375 C-39.8728125 7.65109375 -39.3159375 6.74359375 -38.7421875 5.80859375 C-27.97614762 -4.66647208 -13.19175706 -7.82597806 0 0 Z M-34.48828125 9.85546875 C-39.51195948 17.22834904 -40.28543374 23.71923846 -39.4296875 32.55859375 C-37.47363066 39.56223142 -33.92950306 43.80520018 -27.68359375 47.4375 C-21.1196053 50.70243013 -15.50625756 51.16977711 -8.4296875 49.55859375 C-1.56477434 47.15387853 3.2077188 44.09289156 6.5703125 37.55859375 C9.44688797 31.53148325 9.5632671 24.52412764 7.953125 18.09375 C5.11325745 10.74276542 -0.10375764 6.46792386 -6.8046875 2.62109375 C-16.94686633 -0.35161384 -27.19348854 1.71630724 -34.48828125 9.85546875 Z " fill="#323232" transform="translate(135.4296875,54.44140625)"/>
<path d="M0 0 C2.65872831 2.3003213 3.51469071 4.54878375 3.84375 8.00390625 C3.59375 10.37890625 3.59375 10.37890625 1.59375 12.37890625 C-0.77734375 12.34375 -0.77734375 12.34375 -3.40625 11.37890625 C-5.50390625 8.9453125 -5.50390625 8.9453125 -7.46875 5.94140625 C-10.54698221 1.07602379 -10.54698221 1.07602379 -15.40625 -1.62109375 C-21.74784451 -2.64567109 -26.49680822 -1.78435349 -31.71875 1.953125 C-37.47769991 6.81890444 -39.3890737 12.10350964 -40.40625 19.37890625 C-40.95206692 30.91722214 -41.26240491 42.16824187 -33.40625 51.37890625 C-28.82957708 55.32785595 -23.37489092 56.63884706 -17.40625 56.37890625 C-11.76314563 55.24095793 -6.89552576 53.01308186 -2.40625 49.37890625 C-1.38968919 47.72228864 -0.38559924 46.05779066 0.59375 44.37890625 C1.58375 44.37890625 2.57375 44.37890625 3.59375 44.37890625 C3.17207897 49.15784456 1.18873356 52.32716465 -2.40625 55.37890625 C-10.04803266 60.29331867 -17.44931639 61.55979551 -26.40625 60.37890625 C-34.54453506 58.42479826 -41.25523962 54.01920014 -45.9765625 47.06640625 C-51.28139766 37.85114974 -51.7821089 27.83376111 -50.40625 17.37890625 C-48.22564117 9.40124374 -44.01219393 3.280364 -37.40625 -1.62109375 C-24.61263701 -8.76366915 -12.29170991 -7.63194283 0 0 Z " fill="#2D2D2D" transform="translate(409.40625,60.62109375)"/>
<path d="M0 0 C2.97 0 5.94 0 9 0 C9 29.7 9 59.4 9 90 C6.03 90 3.06 90 0 90 C0 60.3 0 30.6 0 0 Z " fill="#2D2D2D" transform="translate(321,29)"/>
<path d="M0 0 C2.64 0 5.28 0 8 0 C11.3 8.25 14.6 16.5 18 25 C21.10873812 18.93215758 21.10873812 18.93215758 23.66796875 12.75390625 C23.92126953 12.06232422 24.17457031 11.37074219 24.43554688 10.65820312 C24.68369141 9.96662109 24.93183594 9.27503906 25.1875 8.5625 C27.87605337 1.12394663 27.87605337 1.12394663 29 0 C31.31 0 33.62 0 36 0 C36 10.89 36 21.78 36 33 C34.35 33 32.7 33 31 33 C30.67 26.07 30.34 19.14 30 12 C27.36 18.93 24.72 25.86 22 33 C19.69 33 17.38 33 15 33 C11.59333439 25.78177819 8.64137374 18.53280659 6 11 C5.67 18.26 5.34 25.52 5 33 C3.35 33 1.7 33 0 33 C0 22.11 0 11.22 0 0 Z " fill="#2D2D2D" transform="translate(385,143)"/>
<path d="M0 0 C2.97 0 5.94 0 9 0 C9 20.79 9 41.58 9 63 C6.03 63 3.06 63 0 63 C0 42.21 0 21.42 0 0 Z " fill="#2C2C2C" transform="translate(340,56)"/>
<path d="M0 0 C0.68126953 -0.01224609 1.36253906 -0.02449219 2.06445312 -0.03710938 C5.79079809 -0.04805848 7.38241571 0.06744381 10.5625 2.1875 C10.90307617 4.43408203 10.90307617 4.43408203 10.85546875 7.1953125 C10.84580078 8.18144531 10.83613281 9.16757813 10.82617188 10.18359375 C10.80103516 11.21613281 10.77589844 12.24867188 10.75 13.3125 C10.72969727 14.87291016 10.72969727 14.87291016 10.70898438 16.46484375 C10.67355228 19.03957627 10.62415221 21.6132833 10.5625 24.1875 C7.43757749 24.24541844 4.31279234 24.28106746 1.1875 24.3125 C0.29804688 24.32925781 -0.59140625 24.34601563 -1.5078125 24.36328125 C-2.35859375 24.36972656 -3.209375 24.37617188 -4.0859375 24.3828125 C-5.26422119 24.39852295 -5.26422119 24.39852295 -6.46630859 24.41455078 C-8.4375 24.1875 -8.4375 24.1875 -10.4375 22.1875 C-11.48886722 17.54396146 -11.79685609 14.40950564 -9.4375 10.1875 C-6.67297967 8.80523984 -4.3913637 9.09224613 -1.3125 9.125 C-0.21679688 9.13402344 0.87890625 9.14304688 2.0078125 9.15234375 C2.85085938 9.16394531 3.69390625 9.17554688 4.5625 9.1875 C4.5625 7.8675 4.5625 6.5475 4.5625 5.1875 C1.5925 4.8575 -1.3775 4.5275 -4.4375 4.1875 C-4.4375 4.8475 -4.4375 5.5075 -4.4375 6.1875 C-6.4175 6.1875 -8.3975 6.1875 -10.4375 6.1875 C-10.0625 3.75 -10.0625 3.75 -9.4375 1.1875 C-6.41888236 -0.32180882 -3.30758697 0.00311156 0 0 Z M-5.4375 14.1875 C-5.47830783 16.18708364 -5.48004356 18.18795254 -5.4375 20.1875 C-2.66649606 21.57300197 -0.5040294 21.3752467 2.5625 21.1875 C3.5525 20.5275 4.5425 19.8675 5.5625 19.1875 C5.21805119 16.71483235 5.21805119 16.71483235 4.5625 14.1875 C1.87141695 12.84195847 -3.1244541 11.8744541 -5.4375 14.1875 Z " fill="#2C2C2C" transform="translate(436.4375,151.8125)"/>
<path d="M0 0 C3.0859375 0.47265625 3.0859375 0.47265625 6.3984375 2.41015625 C8.76235584 6.70023027 8.44833072 9.61658704 8.0859375 14.47265625 C2.4759375 14.47265625 -3.1340625 14.47265625 -8.9140625 14.47265625 C-8.2540625 16.45265625 -7.5940625 18.43265625 -6.9140625 20.47265625 C-2.26353378 20.74198146 -2.26353378 20.74198146 2.0859375 19.47265625 C2.4159375 18.48265625 2.7459375 17.49265625 3.0859375 16.47265625 C4.7359375 16.47265625 6.3859375 16.47265625 8.0859375 16.47265625 C7.7734375 19.34765625 7.7734375 19.34765625 7.0859375 22.47265625 C3.47998994 24.87662129 0.75753494 24.83971035 -3.4140625 24.84765625 C-4.09082031 24.87214844 -4.76757812 24.89664063 -5.46484375 24.921875 C-8.51821972 24.93994231 -10.43541672 24.85692117 -12.85546875 22.9140625 C-14.32006084 19.53631321 -14.34792134 16.70908287 -14.3515625 13.03515625 C-14.37089844 11.73707031 -14.39023437 10.43898437 -14.41015625 9.1015625 C-13.1685275 0.01909708 -8.02058721 -0.35146393 0 0 Z M-7.9140625 4.47265625 C-8.2440625 6.45265625 -8.5740625 8.43265625 -8.9140625 10.47265625 C-4.9540625 10.47265625 -0.9940625 10.47265625 3.0859375 10.47265625 C2.7559375 8.49265625 2.4259375 6.51265625 2.0859375 4.47265625 C-1.2140625 4.47265625 -4.5140625 4.47265625 -7.9140625 4.47265625 Z " fill="#2D2D2D" transform="translate(513.9140625,151.52734375)"/>
<path d="M0 0 C1.2375 -0.01417969 2.475 -0.02835938 3.75 -0.04296875 C7 0.1875 7 0.1875 10 2.1875 C10 3.5075 10 4.8275 10 6.1875 C8.35 6.1875 6.7 6.1875 5 6.1875 C5 5.5275 5 4.8675 5 4.1875 C1.7 4.5175 -1.6 4.8475 -5 5.1875 C-5.33 6.5075 -5.66 7.8275 -6 9.1875 C-5.10796875 9.21328125 -4.2159375 9.2390625 -3.296875 9.265625 C-1.54117187 9.35070312 -1.54117187 9.35070312 0.25 9.4375 C1.41015625 9.48390625 2.5703125 9.5303125 3.765625 9.578125 C7.51792054 10.28507923 8.75464327 11.14452263 11 14.1875 C11.73966041 20.21044906 11.73966041 20.21044906 9.71899414 22.87963867 C6.72170222 25.16006657 3.04835485 24.574914 -0.5625 24.5 C-1.34302734 24.50322266 -2.12355469 24.50644531 -2.92773438 24.50976562 C-8.73283019 24.45466981 -8.73283019 24.45466981 -11 22.1875 C-11.125 19.0625 -11.125 19.0625 -11 16.1875 C-9.35 16.1875 -7.7 16.1875 -6 16.1875 C-6 17.5075 -6 18.8275 -6 20.1875 C-2.7 20.1875 0.6 20.1875 4 20.1875 C4.66 18.5375 5.32 16.8875 6 15.1875 C4.53626953 15.13142578 4.53626953 15.13142578 3.04296875 15.07421875 C1.77066406 15.00847656 0.49835938 14.94273437 -0.8125 14.875 C-2.07707031 14.81699219 -3.34164063 14.75898438 -4.64453125 14.69921875 C-8 14.1875 -8 14.1875 -9.93359375 12.8984375 C-11.90002941 9.74349677 -11.23097945 6.82542631 -11 3.1875 C-8.92965264 -0.95319472 -4.07488739 0.02122337 0 0 Z " fill="#2D2D2D" transform="translate(463,151.8125)"/>
<path d="M0 0 C4.00255838 2.11455915 6.36245253 3.77481854 8 8 C8.32364968 12.63897872 7.58005227 16.1299216 5 20 C1.04789299 22.63473801 -2.24670065 23.71380605 -7 23 C-10.43372869 21.00869266 -13.21419241 18.57161517 -15 15 C-15.57791538 7.9494324 -15.57791538 7.9494324 -13.25 4.125 C-8.9815747 0.09370944 -5.92884333 -0.61332862 0 0 Z M-9 8 C-9.333728 11.13704316 -9.52849028 13.16554166 -7.8125 15.875 C-5.34492892 17.40659584 -3.85480169 17.42822025 -1 17 C1.01951062 16.06402685 1.01951062 16.06402685 2 14 C1.9493338 9.65490784 1.9493338 9.65490784 0 6 C-5.02509316 5.45584266 -5.02509316 5.45584266 -9 8 Z " fill="#323232" transform="translate(51,39)"/>
<path d="M0 0 C1.65 0 3.3 0 5 0 C5 1.98 5 3.96 5 6 C8.96 6 12.92 6 17 6 C17 6.99 17 7.98 17 9 C13.04 9 9.08 9 5 9 C5.14063135 11.29199177 5.28765943 13.58359186 5.4375 15.875 C5.51871094 17.15117187 5.59992188 18.42734375 5.68359375 19.7421875 C5.79206027 22.88300152 5.79206027 22.88300152 7 25 C8.32 25 9.64 25 11 25 C11.33 23.35 11.66 21.7 12 20 C13.65 20 15.3 20 17 20 C17.125 23.375 17.125 23.375 17 27 C14.31540608 29.68459392 12.80259802 29.32966548 9.0625 29.375 C8.00160156 29.40335938 6.94070313 29.43171875 5.84765625 29.4609375 C3 29 3 29 1.1328125 27.4921875 C-0.48189193 23.93983775 -0.31901361 20.56726688 -0.1875 16.75 C-0.16719727 15.63238281 -0.16719727 15.63238281 -0.14648438 14.4921875 C-0.11127204 12.66114584 -0.05746851 10.83047831 0 9 C-0.99 9 -1.98 9 -3 9 C-3 8.01 -3 7.02 -3 6 C-2.01 6 -1.02 6 0 6 C0 4.02 0 2.04 0 0 Z " fill="#2D2D2D" transform="translate(479,147)"/>
<path d="M0 0 C0.74636719 -0.01417969 1.49273438 -0.02835938 2.26171875 -0.04296875 C4.3125 0.1875 4.3125 0.1875 7.3125 2.1875 C7.5 5.8125 7.5 5.8125 7.3125 9.1875 C5.6625 9.1875 4.0125 9.1875 2.3125 9.1875 C2.3125 7.5375 2.3125 5.8875 2.3125 4.1875 C0.0025 4.1875 -2.3075 4.1875 -4.6875 4.1875 C-5.0175 10.7875 -5.3475 17.3875 -5.6875 24.1875 C-7.3375 24.1875 -8.9875 24.1875 -10.6875 24.1875 C-10.6875 16.5975 -10.6875 9.0075 -10.6875 1.1875 C-6.89261561 0.55501927 -3.74826121 0.03270734 0 0 Z " fill="#2D2D2D" transform="translate(537.6875,151.8125)"/>
<path d="M0 0 C0.66 0 1.32 0 2 0 C2.556875 1.670625 2.556875 1.670625 3.125 3.375 C4.4794021 6.61378762 4.76212803 6.89272441 8.1875 8.4375 C9.115625 8.623125 10.04375 8.80875 11 9 C10.67 9.99 10.34 10.98 10 12 C8.5459375 12.680625 8.5459375 12.680625 7.0625 13.375 C3.81873754 14.72142507 3.81873754 14.72142507 2.625 17.6875 C2.41875 18.450625 2.2125 19.21375 2 20 C1.01 19.67 0.02 19.34 -1 19 C-1.28875 18.195625 -1.5775 17.39125 -1.875 16.5625 C-2.77944219 13.76071559 -2.77944219 13.76071559 -5.625 12.6875 C-6.40875 12.460625 -7.1925 12.23375 -8 12 C-8 11.01 -8 10.02 -8 9 C-7.05125 8.814375 -6.1025 8.62875 -5.125 8.4375 C-1.61628301 7.26599195 -1.61628301 7.26599195 -0.625 3.375 C-0.41875 2.26125 -0.2125 1.1475 0 0 Z " fill="#2D2D2D" transform="translate(344,32)"/>
</svg>
