<?xml version="1.0" standalone="no"?>
<!DOCTYPE svg PUBLIC "-//W3C//DTD SVG 20010904//EN"
 "http://www.w3.org/TR/2001/REC-SVG-20010904/DTD/svg10.dtd">
<svg version="1.0" xmlns="http://www.w3.org/2000/svg"
 width="637.000000pt" height="637.000000pt" viewBox="0 0 637.000000 637.000000"
 preserveAspectRatio="xMidYMid meet">

<g transform="translate(0.000000,637.000000) scale(0.100000,-0.100000)"
fill="#000000" stroke="none">
<path d="M2920 6274 c-668 -60 -1213 -273 -1720 -672 -125 -99 -386 -361 -488
-490 -678 -856 -855 -1993 -471 -3017 157 -418 403 -791 735 -1115 256 -250
513 -431 822 -578 1069 -508 2325 -365 3255 370 131 104 391 364 495 495 353
446 569 959 648 1538 14 97 18 195 18 385 0 190 -4 288 -18 385 -69 506 -237
949 -517 1360 -104 153 -190 256 -344 414 -494 506 -1108 811 -1820 906 -114
15 -498 28 -595 19z m-735 -1232 l80 -7 3 -58 c4 -70 -11 -98 -65 -124 l-38
-18 35 -3 c19 -2 39 -10 43 -18 5 -8 24 -14 47 -14 36 0 40 -3 40 -24 0 -21 6
-25 33 -28 28 -3 32 -7 35 -35 l3 -33 153 0 c144 0 157 2 212 26 94 41 114 50
207 88 l88 36 307 -2 307 -3 3 -73 c2 -62 5 -73 20 -70 9 2 19 14 22 28 4 19
12 24 35 25 26 0 30 4 33 33 l3 32 202 -2 202 -3 3 -29 c2 -17 11 -30 22 -33
10 -3 20 -15 22 -27 2 -13 11 -22 26 -24 l22 -3 -2 -782 -3 -782 -780 -3 -780
-2 0 -51 c0 -45 -4 -54 -34 -81 -32 -29 -37 -30 -92 -24 -32 4 -80 13 -106 21
-26 7 -75 21 -108 30 -33 9 -64 20 -70 24 -5 5 -32 14 -60 21 -64 16 -140 43
-185 66 -27 14 -71 20 -185 26 -236 11 -249 24 -28 25 l193 2 162 -56 c257
-87 348 -113 403 -113 l40 0 -68 32 c-75 35 -88 57 -66 110 14 35 18 30 -85
103 -32 22 -69 50 -83 63 -47 43 -128 98 -163 111 -69 26 -147 36 -484 62
-105 8 -137 14 -168 33 l-37 22 47 17 c26 9 74 19 107 22 33 4 74 10 90 15 17
5 89 14 160 20 120 10 132 13 153 36 l22 25 0 -29 c0 -25 9 -36 53 -65 64 -42
135 -77 157 -77 9 0 22 10 28 23 9 18 10 12 5 -30 -6 -58 1 -74 65 -145 40
-45 103 -88 127 -88 10 0 15 10 15 28 0 15 4 43 9 62 5 19 12 69 16 110 l6 75
-38 44 c-21 24 -51 58 -68 76 -45 47 -240 212 -325 275 -68 50 -78 55 -123 53
-26 -1 -110 -19 -185 -39 -75 -20 -148 -39 -162 -41 -56 -10 37 27 180 71 109
34 151 52 168 71 l22 26 0 -25 c0 -17 6 -26 16 -26 15 0 68 -27 209 -106 33
-19 71 -49 85 -67 13 -19 51 -54 85 -80 33 -25 73 -58 89 -73 37 -35 45 -22
48 81 5 162 4 170 -25 206 -15 19 -36 44 -45 56 -9 12 -20 22 -25 23 -4 0 -29
15 -55 33 -66 47 -415 245 -444 252 -25 6 -86 -23 -350 -168 -87 -48 -163 -87
-170 -87 -7 0 -4 6 7 12 11 6 22 14 25 17 3 3 51 37 107 74 56 38 105 78 109
90 10 32 8 116 -6 209 -12 77 -15 86 -39 95 -24 10 -24 11 16 12 39 1 45 5
101 74 95 117 96 119 71 150 -24 31 -19 34 17 10 22 -14 33 -15 91 -4 66 12
237 64 260 78 6 5 13 17 15 28 3 18 -4 20 -80 25 -61 4 -87 9 -95 21 -8 11
-36 18 -92 23 l-80 7 -120 -71 c-66 -39 -136 -81 -155 -94 -19 -12 -55 -36
-80 -52 -91 -59 -93 -63 -120 -349 -11 -115 -28 -259 -37 -320 l-16 -110 -73
-70 -74 -70 0 -58 c0 -59 15 -81 43 -59 6 5 25 12 40 16 39 9 28 -6 -38 -49
-62 -42 -69 -57 -84 -190 -15 -136 -35 -425 -29 -430 3 -3 18 0 34 7 19 8 85
12 194 12 146 0 173 -3 240 -24 128 -41 162 -76 135 -134 -24 -50 -85 -89
-139 -88 -52 0 -162 60 -283 153 -69 54 -82 60 -113 55 -93 -14 -217 -111
-274 -211 -62 -113 -82 -298 -47 -437 41 -159 114 -256 254 -336 102 -59 325
-65 446 -11 114 50 202 133 235 221 22 56 51 128 168 408 18 41 40 83 49 94
34 37 53 -10 25 -62 -22 -41 -165 -406 -193 -492 -35 -106 -33 -140 7 -140 23
0 81 33 137 77 73 58 88 39 19 -25 -125 -116 -224 -132 -243 -41 -3 16 -9 29
-14 29 -5 0 -30 -22 -56 -48 -51 -51 -154 -132 -168 -132 -5 0 -16 -6 -24 -14
-9 -7 -43 -24 -76 -37 -51 -19 -79 -23 -185 -23 -132 0 -194 14 -295 71 -104
58 -210 188 -246 302 -28 93 -35 245 -15 341 39 184 181 370 338 440 14 7 29
23 32 35 3 13 15 138 25 278 14 181 25 267 37 294 11 26 16 62 15 114 -1 41 3
88 9 104 6 15 41 57 77 92 l67 63 13 98 c13 103 24 199 48 430 8 78 21 155 29
170 25 48 91 98 271 205 194 115 187 113 323 109 64 -2 153 -7 197 -10z m-558
-1148 c-3 -3 -12 -4 -19 -1 -8 3 -5 6 6 6 11 1 17 -2 13 -5z m-194 -346 c14
-14 9 -15 -53 -10 l-69 5 -20 -34 c-12 -19 -21 -42 -21 -51 0 -9 -5 -20 -11
-24 -18 -11 -5 80 16 112 16 25 21 26 80 22 39 -2 68 -10 78 -20z m17 -207
c20 -6 10 -10 -42 -16 -74 -8 -77 -10 -132 -102 -44 -75 -60 -88 -42 -35 22
60 54 119 78 142 23 21 86 26 138 11z m3790 -519 c0 -10 -13 -49 -30 -87 -16
-39 -30 -76 -30 -82 0 -9 23 -13 81 -13 60 0 80 -3 77 -12 -3 -9 -34 -15 -91
-18 -47 -3 -87 -7 -90 -10 -6 -7 -104 -251 -133 -330 -13 -36 -24 -84 -24
-107 0 -37 3 -43 24 -49 35 -8 111 28 177 86 57 50 79 60 79 39 0 -19 -115
-123 -162 -147 -64 -31 -131 -30 -165 4 -23 23 -25 31 -20 77 3 31 34 123 76
227 39 96 71 181 71 187 0 9 -19 13 -65 13 -51 0 -65 3 -65 15 0 12 13 15 58
15 93 0 95 2 146 111 36 75 52 99 67 99 12 0 19 -7 19 -18z m-2168 -44 c4 -12
-18 -78 -46 -143 -8 -16 -37 -82 -65 -146 -27 -63 -57 -129 -66 -145 -17 -32
-20 -64 -6 -64 5 0 37 14 71 31 72 36 114 33 67 -5 -16 -13 -59 -38 -98 -56
-74 -36 -95 -64 -63 -87 37 -27 117 -11 242 49 34 16 70 27 78 24 11 -4 18 1
21 14 3 11 9 20 14 20 5 0 9 4 9 10 0 5 20 51 44 102 43 92 85 184 111 243 56
128 76 165 89 165 26 0 24 -44 -5 -107 -10 -23 -19 -45 -19 -48 0 -6 -27 -68
-65 -150 -64 -138 -85 -187 -85 -195 0 -16 19 -12 86 21 57 28 84 31 84 9 0
-4 -40 -29 -90 -54 -92 -48 -116 -71 -100 -97 15 -23 115 -17 185 11 33 13 62
26 65 30 7 8 59 30 70 30 25 0 5 -31 -37 -58 -79 -49 -204 -78 -268 -61 -84
22 -78 24 -109 -41 -30 -60 -53 -81 -62 -56 -5 12 32 115 57 159 17 30 4 30
-41 2 -88 -56 -260 -89 -292 -57 -27 27 -54 14 -82 -43 -32 -62 -46 -77 -64
-66 -9 5 -3 29 23 91 19 46 33 86 30 89 -3 2 -15 -5 -28 -16 -12 -12 -47 -34
-77 -49 -49 -26 -65 -29 -148 -29 -91 0 -94 1 -119 29 -19 23 -24 37 -20 62 8
47 52 107 96 132 47 26 136 31 144 7 8 -19 -9 -28 -39 -21 -70 18 -174 -112
-128 -159 15 -14 30 -17 83 -13 63 5 118 26 182 71 28 20 59 22 59 5 0 -21 25
24 75 132 26 58 74 162 106 232 32 71 61 138 65 150 13 46 57 75 66 46z m-807
-328 c10 -16 -26 -81 -49 -90 -30 -11 -39 2 -24 36 25 55 57 79 73 54z m2510
-82 c24 -11 34 -41 16 -52 -5 -3 -19 3 -32 13 -48 39 -75 -11 -45 -83 16 -39
32 -51 49 -38 7 5 37 17 67 27 30 10 61 20 68 23 6 2 12 -2 12 -10 0 -12 -85
-58 -109 -58 -4 0 -16 -9 -25 -19 -14 -15 -15 -24 -7 -40 6 -11 11 -37 11 -58
0 -32 -6 -43 -29 -60 -34 -26 -141 -47 -188 -38 -71 13 -63 79 16 127 20 12
38 25 41 28 3 4 15 12 28 19 26 14 28 37 7 106 -12 38 -13 56 -5 76 19 44 74
61 125 37z m-307 -34 c25 -17 28 -36 9 -52 -10 -9 -19 -7 -35 4 -19 13 -24 13
-49 0 -45 -25 -90 -68 -112 -108 -20 -37 -20 -38 -1 -38 17 0 46 21 119 88 14
13 34 22 45 20 19 -3 21 -9 18 -57 l-3 -54 37 6 c24 4 49 19 76 47 44 44 58
50 58 20 0 -29 -68 -89 -119 -104 -53 -15 -82 -8 -96 22 -12 26 -28 28 -46 6
-16 -19 -92 -54 -117 -54 -9 0 -28 9 -41 19 -23 18 -24 21 -11 52 30 76 89
134 185 183 38 20 55 20 83 0z m1312 -4 c9 -17 13 -18 48 -6 76 27 121 1 92
-52 -21 -36 -50 -42 -50 -9 0 35 -9 38 -49 17 -41 -21 -93 -73 -141 -142 -33
-47 -70 -64 -70 -32 0 13 76 165 114 227 14 23 43 22 56 -3z m-2060 -4 c0 -1
-7 -23 -16 -49 -9 -26 -14 -51 -12 -56 1 -6 37 10 78 34 41 25 84 45 97 45 20
0 23 -5 23 -35 l0 -34 63 39 c115 72 141 64 113 -34 -20 -67 -20 -76 -1 -76
15 0 63 30 93 58 15 13 52 17 52 4 0 -12 -60 -66 -102 -91 -27 -16 -50 -21
-80 -19 -51 4 -57 21 -35 86 8 23 12 43 10 46 -7 6 -55 -25 -66 -41 -4 -7 -14
-13 -22 -13 -8 0 -18 -6 -22 -13 -14 -22 -87 -77 -103 -77 -40 1 -42 16 -10
70 17 29 29 54 27 57 -3 2 -50 -30 -105 -71 -55 -42 -105 -76 -111 -76 -27 0
-20 34 25 127 54 111 70 134 90 126 8 -3 14 -6 14 -7z m1791 -6 c31 -17 24
-55 -18 -89 -32 -27 -46 -31 -95 -31 -55 0 -58 -1 -58 -24 0 -30 34 -56 71
-56 42 0 99 28 156 76 28 24 56 44 62 44 24 0 9 -27 -43 -75 -70 -66 -153 -95
-218 -76 -90 27 -108 61 -72 138 35 73 155 125 215 93z m-3321 -32 c0 -7 -12
-35 -25 -63 -14 -27 -25 -58 -25 -67 0 -38 84 -12 148 46 37 34 62 45 62 28 0
-4 -20 -30 -44 -58 -35 -39 -59 -56 -106 -73 -53 -19 -66 -21 -91 -11 -26 11
-29 17 -29 56 0 24 4 44 8 44 4 0 14 16 21 36 7 20 20 45 29 55 18 21 52 26
52 7z"/>
<path d="M2100 4990 c0 -6 27 -10 63 -9 46 1 56 3 37 9 -36 12 -100 12 -100 0z"/>
<path d="M1913 4773 c-24 -9 -13 -23 18 -23 20 0 29 4 27 13 -5 13 -26 18 -45
10z"/>
<path d="M3824 4759 c-13 -22 24 -29 171 -29 147 0 184 7 171 29 -5 7 -62 11
-171 11 -109 0 -166 -4 -171 -11z"/>
<path d="M1862 4710 c-16 -26 -15 -30 3 -30 9 0 15 9 15 25 0 30 -2 31 -18 5z"/>
<path d="M3757 4703 c-20 -20 13 -23 223 -23 209 0 270 7 208 24 -31 8 -423 8
-431 -1z"/>
<path d="M1767 4596 c-36 -43 -36 -44 -27 -102 6 -33 10 -87 10 -121 0 -35 3
-63 6 -63 3 0 19 8 35 17 l29 17 0 148 c0 81 -4 148 -9 148 -5 0 -25 -20 -44
-44z"/>
<path d="M1860 4505 c0 -147 -2 -143 60 -121 43 16 68 8 192 -58 l87 -46 301
0 c283 0 324 -4 287 -27 -30 -19 -107 -123 -135 -183 -46 -98 -55 -145 -50
-282 2 -91 8 -132 21 -157 9 -19 17 -38 17 -42 0 -4 15 -34 34 -66 109 -183
302 -293 516 -293 244 0 460 148 558 383 24 57 26 74 25 207 0 132 -2 150 -24
200 -45 100 -67 134 -123 197 l-57 62 48 3 48 3 3 178 2 177 -905 0 -905 0 0
-135z m1710 20 l0 -85 -382 2 -383 3 -3 69 c-2 38 -1 75 2 83 4 11 76 13 386
13 l380 0 0 -85z m-249 -174 c125 -32 250 -117 317 -216 15 -22 30 -42 33 -45
3 -3 19 -39 35 -80 26 -68 29 -86 29 -195 0 -108 -3 -127 -28 -188 -36 -88
-66 -135 -124 -192 -94 -93 -186 -139 -313 -157 -245 -36 -471 85 -581 310
-42 84 -43 90 -47 205 -4 102 -2 126 18 188 58 179 208 319 397 369 89 24 171
24 264 1z"/>
<path d="M3080 4263 c-94 -19 -235 -124 -289 -214 -120 -203 -57 -472 142
-607 84 -57 151 -76 262 -75 114 1 179 23 272 90 51 36 113 109 113 132 0 6 4
11 9 11 5 0 15 17 21 38 6 20 17 48 23 61 19 38 14 219 -6 256 -9 17 -17 35
-17 42 0 51 -138 193 -227 235 -59 27 -79 31 -172 34 -58 1 -117 0 -131 -3z
m217 -32 c40 -10 89 -29 110 -42 64 -39 143 -127 176 -198 29 -62 31 -73 31
-176 0 -102 -2 -115 -29 -170 -17 -33 -36 -64 -42 -68 -7 -4 -13 -13 -13 -19
0 -6 -18 -28 -40 -48 -216 -199 -562 -135 -691 127 -33 65 -34 72 -34 183 1
106 3 120 30 173 57 117 157 202 279 237 81 23 136 24 223 1z"/>
<path d="M3124 3941 c-51 -31 -74 -68 -74 -120 0 -105 96 -168 197 -130 112
42 110 207 -4 255 -44 19 -82 17 -119 -5z"/>
<path d="M3782 4463 l3 -178 230 0 230 0 3 178 2 177 -235 0 -235 0 2 -177z"/>
<path d="M2615 3175 l30 -25 803 0 802 0 0 25 0 25 -832 0 -833 -1 30 -24z"/>
<path d="M2541 3147 c-7 -9 -14 -27 -15 -40 -3 -25 15 -38 98 -71 52 -21 56
-20 56 12 0 19 -9 33 -33 49 -17 12 -39 23 -47 25 -8 2 -21 11 -30 22 -14 16
-17 16 -29 3z"/>
<path d="M4665 2108 c-35 -20 -95 -69 -95 -79 0 -13 81 -11 110 4 19 10 25 20
25 46 0 38 -10 46 -40 29z"/>
<path d="M5425 2277 c-50 -17 -61 -47 -17 -47 32 0 72 35 56 49 -5 5 -22 4
-39 -2z"/>
</g>
</svg>
